<svg width="144" height="28" viewBox="0 0 144 28" fill="none" xmlns="http://www.w3.org/2000/svg">
<path d="M93.4568 7.51206C87.4926 7.51206 83.7385 11.3034 83.7385 17.3017C83.7385 23.2999 87.4926 27.094 93.4568 27.094C99.421 27.094 103.14 23.3027 103.14 17.3017C103.14 11.3007 99.421 7.51206 93.4568 7.51206ZM93.4568 21.0224C91.2522 21.0224 90.0153 19.6961 90.0153 17.3044C90.0153 14.9127 91.2522 13.5864 93.4568 13.5864C95.6614 13.5864 96.8575 14.9127 96.8575 17.3044C96.8575 19.6961 95.6207 20.9843 93.4568 21.0224Z" fill="#18093B"/>
<path d="M134.317 7.51206C128.353 7.51206 124.599 11.3034 124.599 17.3017C124.599 23.2999 128.353 27.094 134.317 27.094C140.281 27.094 144 23.3027 144 17.3017C144 11.3007 140.281 7.51206 134.317 7.51206ZM134.317 21.0224C132.112 21.0224 130.875 19.6961 130.875 17.3044C130.875 14.9127 132.112 13.5864 134.317 13.5864C136.522 13.5864 137.718 14.9127 137.718 17.3044C137.718 19.6961 136.481 20.9843 134.317 21.0224Z" fill="#18093B"/>
<path d="M83.6077 26.521C82.2757 22.5666 82.8927 16.9488 82.417 12.9536C81.9386 8.95843 79.5518 7.52613 76.6784 7.52613C73.8051 7.52613 71.4183 8.95571 70.9399 12.9536H70.736C70.2575 8.95843 67.8708 7.52613 64.9974 7.52613C62.124 7.52613 59.7373 8.95571 59.2588 12.9536H59.055C58.881 11.3012 58.5575 9.67866 58.1035 8.1159H51.9327C52.4084 11.024 52.664 14.1142 52.664 17.3185C52.664 20.5228 52.4084 23.613 51.9327 26.521H59.6095C59.3458 24.1728 59.1718 21.8518 59.1718 20.0472C59.1718 17.0766 59.3404 12.7009 61.8141 12.7009C64.2879 12.7009 64.4564 17.0766 64.4564 20.0472C64.4564 21.8518 64.2825 24.1728 64.0188 26.521H71.3558C71.0921 24.1728 70.9181 21.8518 70.9181 20.0472C70.9181 17.0766 71.0867 12.7009 73.5604 12.7009C76.0342 12.7009 76.2027 17.0766 76.2027 20.0472C76.2027 21.8518 76.0287 24.1728 75.7651 26.521H83.6022H83.6077Z" fill="#18093B"/>
<path d="M42.6379 21.0224C40.9743 21.0224 39.7591 20.6283 38.9844 19.8701C46.0414 20.0168 50.4425 17.2256 50.4425 13.3554C50.4425 10.1076 47.5528 7.5148 42.048 7.5148C35.2737 7.5148 31.5196 11.3062 31.5196 17.1577C31.5196 23.0091 35.57 27.0968 41.9746 27.0968C45.0301 27.0968 48.4173 26.2135 50.8095 24.8518V18.2991C48.0122 20.0304 45.1035 21.0224 42.6352 21.0224H42.6379ZM41.5968 13.5864C43.4371 13.5864 44.3315 14.7225 44.3315 15.6846C44.3315 17.7773 41.8958 18.5356 38.177 18.5274C38.0329 18.079 37.9623 17.5735 37.9623 17.0109C37.9623 14.7035 39.751 13.5864 41.5968 13.5864Z" fill="#18093B"/>
<path d="M23.6176 4.04956C23.7943 9.67003 23.2017 14.9209 22.0001 19.4814C20.4153 15.8939 19.3415 11.8443 18.9147 7.51208H12.4667C12.0399 11.8443 10.9661 15.8939 9.38125 19.4814C8.17971 14.9236 7.5871 9.67003 7.76379 4.04956H0C0.0761156 12.4178 1.97629 20.1609 5.16227 26.5043H11.9801C12.7983 22.3813 14.0216 18.2964 15.6907 14.255C17.3571 18.2964 18.5804 22.3813 19.4013 26.5043H26.2191C29.4078 20.1581 31.308 12.4178 31.3814 4.04956H23.6176Z" fill="#18093B"/>
<path d="M116.667 0C116.871 2.39984 117.012 4.9383 117.086 7.59905C116.512 7.54469 115.909 7.51208 115.272 7.51208C108.868 7.51208 104.244 11.3388 104.092 18.2611C103.972 23.6723 106.364 27.094 110.303 27.094C113.323 27.094 115.949 24.9959 117.2 21.5741H117.404C117.58 23.2592 117.915 24.9143 118.382 26.507H123.92C123.164 16.7527 123.178 7.65884 123.827 0H116.667ZM117.058 17.5979C116.996 19.6336 115.664 21.0197 113.712 21.0197C111.652 21.0197 110.499 19.7695 110.548 17.5979C110.605 15.0214 112.13 13.5864 115.139 13.5864C115.841 13.5864 116.515 13.6598 117.137 13.774C117.124 15.0296 117.099 16.307 117.058 17.6007V17.5979Z" fill="#18093B"/>
</svg>
